<?xml version="1.0" encoding="UTF-8"?><svg id="Layer_1" xmlns="http://www.w3.org/2000/svg" viewBox="0 0 270.36 270.98"><defs><style>.cls-1{fill:#1d1d1b;}</style></defs><path class="cls-1" d="M196.39,123.17h73.97c-5.37-58.86-48.45-106.81-104.88-119.49v33.51c28.15,8.5,51.21,28.76,63.46,55.06h-63.46v86.72h63.46c-12.25,26.3-35.31,46.56-63.46,55.06v33.51c56.43-12.67,99.52-60.63,104.88-119.49h-73.97v-24.89Z"/><path class="cls-1" d="M104.88,37.2V3.69C48.45,16.36,5.37,64.31,0,123.17h73.97v24.89H0c5.37,58.86,48.45,106.81,104.88,119.49v-33.51c-28.16-8.5-51.21-28.76-63.46-55.06h63.46v-86.72h-63.46c12.25-26.3,35.31-46.56,63.46-55.06Z"/><path class="cls-1" d="M116.73,269.73c6.03.82,12.19,1.25,18.44,1.25s12.41-.43,18.44-1.25V1.25c-6.03-.82-12.19-1.25-18.44-1.25s-12.41.43-18.44,1.25v268.47Z"/></svg>